<svg width="22" height="22" fill="none" xmlns="http://www.w3.org/2000/svg"><path d="M15.125 8.938a.687.687 0 01.688-.688h1.374a.687.687 0 01.688.688v1.374a.687.687 0 01-.688.688h-1.375a.687.687 0 01-.687-.688V8.938z" fill="#037E8C"/><path d="M4.813 0A.688.688 0 015.5.688v.687h11V.687a.687.687 0 111.375 0v.688h1.375A2.75 2.75 0 0122 4.125V19.25A2.75 2.75 0 0119.25 22H2.75A2.75 2.75 0 010 19.25V4.125a2.75 2.75 0 012.75-2.75h1.375V.687A.688.688 0 014.813 0zM1.374 5.5v13.75a1.375 1.375 0 001.375 1.375h16.5a1.375 1.375 0 001.375-1.375V5.5H1.375z" fill="#037E8C"/></svg>