<svg width="28" height="27" fill="none" xmlns="http://www.w3.org/2000/svg"><path fill-rule="evenodd" clip-rule="evenodd" d="M14 2.417C7.617 2.417 2.5 7.41 2.5 13.5S7.617 24.583 14 24.583c6.384 0 11.5-4.994 11.5-11.083 0-6.09-5.116-11.084-11.5-11.084zM.5 13.5C.5 6.242 6.576.417 14 .417S27.5 6.242 27.5 13.5c0 7.257-6.076 13.083-13.5 13.083S.5 20.757.5 13.5z" fill="#fff"/><path fill-rule="evenodd" clip-rule="evenodd" d="M14 5.25a1 1 0 011 1v7.458c0 .364.15.72.427.99l3.018 2.916a1 1 0 01-1.39 1.438l-3.017-2.916A3.377 3.377 0 0113 13.707V6.25a1 1 0 011-1z" fill="#fff"/></svg>