<svg xmlns="http://www.w3.org/2000/svg" viewBox="0 0 20 20" width="20" height="20">
	<style>
		tspan { white-space:pre }
		.shp0 { fill: #ffffff } 
	</style>
	<path id="Layer" class="shp0" d="M20,2v16c0,1.1 -0.9,2 -2,2h-16c-1.1,0 -2,-0.9 -2,-2v-16c0,-1.1 0.9,-2 2,-2h16c1.1,0 2,0.9 2,2zM6,10c0,2.21 1.79,4 4,4c2.21,0 4,-1.79 4,-4c0,-2.21 -1.79,-4 -4,-4c-2.21,0 -4,1.79 -4,4zM17.5,18c0.14,0.01 0.27,-0.04 0.36,-0.14c0.1,-0.1 0.15,-0.23 0.14,-0.36v-8.5h-2.1c0.08,0.33 0.12,0.66 0.1,1c0,3.31 -2.69,6 -6,6c-3.31,0 -6,-2.69 -6,-6c-0.02,-0.34 0.02,-0.67 0.1,-1h-2.1v8.5c-0.01,0.14 0.04,0.27 0.14,0.36c0.1,0.1 0.23,0.15 0.36,0.14zM18,2.5c0.01,-0.14 -0.04,-0.27 -0.14,-0.36c-0.1,-0.1 -0.23,-0.15 -0.36,-0.14h-2c-0.14,-0.01 -0.27,0.04 -0.36,0.14c-0.1,0.1 -0.15,0.23 -0.14,0.36v2c-0.01,0.14 0.04,0.27 0.14,0.36c0.1,0.1 0.23,0.15 0.36,0.14h2c0.14,0.01 0.27,-0.04 0.36,-0.14c0.1,-0.1 0.15,-0.23 0.14,-0.36z" />
</svg>