<svg xmlns="http://www.w3.org/2000/svg" viewBox="0 0 28 16" width="28" height="16">
	<style>
		tspan { white-space:pre }
		.shp0 { fill: #ffffff } 
	</style>
	<path id="Layer" class="shp0" d="M27,14.47l-0.09,-0.17c-0.71,-1.12 -1.59,-2.13 -2.6,-3c-0.58,-0.55 -0.95,-0.93 -1.1,-1.12c-0.32,-0.3 -0.41,-0.78 -0.21,-1.18c0.34,-0.63 0.75,-1.23 1.22,-1.78l0.88,-1.16c1.57,-2.09 2.23,-3.42 2,-4l-0.1,-0.12c-0.11,-0.11 -0.25,-0.19 -0.4,-0.22c-0.29,-0.06 -0.58,-0.06 -0.87,0h-3.92c-0.09,-0.02 -0.18,-0.02 -0.27,0h-0.3c-0.06,0.04 -0.11,0.09 -0.15,0.14c-0.06,0.07 -0.11,0.15 -0.14,0.24c-0.41,1.06 -0.9,2.08 -1.46,3.06c-0.33,0.56 -0.64,1.05 -0.93,1.46c-0.21,0.32 -0.45,0.63 -0.71,0.91c-0.16,0.17 -0.34,0.33 -0.52,0.47c-0.15,0.12 -0.27,0.17 -0.35,0.15l-0.23,-0.05c-0.13,-0.08 -0.24,-0.2 -0.31,-0.33c-0.09,-0.17 -0.14,-0.34 -0.16,-0.53v-4.64c0.02,-0.21 0.02,-0.41 0,-0.62c-0.03,-0.15 -0.08,-0.3 -0.14,-0.44c-0.06,-0.14 -0.16,-0.25 -0.28,-0.33c-0.14,-0.08 -0.3,-0.14 -0.46,-0.18c-0.61,-0.07 -1.22,-0.08 -1.83,-0.03c-1.09,-0.09 -2.2,0.02 -3.25,0.33c-0.2,0.1 -0.37,0.24 -0.52,0.41c-0.17,0.2 -0.19,0.31 -0.07,0.33c0.45,0.03 0.87,0.24 1.16,0.59l0.08,0.16c0.09,0.2 0.15,0.41 0.19,0.63c0.07,0.33 0.11,0.66 0.12,1c0.05,0.57 0.05,1.13 0,1.7c-0.05,0.47 -0.09,0.84 -0.13,1.1c-0.03,0.22 -0.09,0.44 -0.18,0.64c-0.05,0.1 -0.1,0.2 -0.16,0.3l-0.07,0.07c-0.12,0.05 -0.24,0.07 -0.37,0.07c-0.17,-0.02 -0.33,-0.08 -0.46,-0.19c-0.21,-0.15 -0.39,-0.33 -0.56,-0.52c-0.24,-0.29 -0.47,-0.6 -0.66,-0.93c-0.25,-0.4 -0.5,-0.87 -0.76,-1.42l-0.22,-0.39c-0.13,-0.25 -0.32,-0.62 -0.56,-1.11c-0.24,-0.49 -0.45,-0.96 -0.62,-1.43c-0.06,-0.18 -0.18,-0.33 -0.33,-0.44h-0.07c-0.07,-0.06 -0.14,-0.12 -0.22,-0.16c-0.1,-0.04 -0.2,-0.07 -0.31,-0.09l-3.73,0.03c-0.28,-0.03 -0.56,0.07 -0.77,0.26l-0.1,0.06c-0.02,0.07 -0.02,0.15 0,0.22c0,0.13 0.03,0.25 0.08,0.37c0.55,1.29 1.14,2.53 1.78,3.72c0.64,1.19 1.19,2.14 1.66,2.87c0.47,0.73 0.97,1.41 1.48,2.06c0.51,0.65 0.85,1.06 1,1.24l0.37,0.41l0.34,0.33c0.31,0.29 0.65,0.55 1,0.78c0.45,0.32 0.92,0.62 1.4,0.9c0.56,0.32 1.17,0.56 1.79,0.72c0.65,0.18 1.33,0.26 2,0.22h1.57c0.27,-0.01 0.53,-0.11 0.72,-0.3l0.05,-0.07c0.05,-0.08 0.08,-0.16 0.1,-0.25c0.02,-0.12 0.02,-0.25 0,-0.37c-0.01,-0.35 0.02,-0.7 0.09,-1.05c0.04,-0.25 0.12,-0.48 0.23,-0.71c0.08,-0.15 0.17,-0.28 0.29,-0.4c0.07,-0.08 0.15,-0.14 0.23,-0.2h0.11c0.28,-0.06 0.56,0.02 0.77,0.21c0.31,0.23 0.59,0.49 0.83,0.79c0.26,0.31 0.57,0.66 0.93,1.05c0.3,0.32 0.64,0.62 1,0.87l0.27,0.16c0.22,0.13 0.46,0.23 0.71,0.3c0.24,0.09 0.5,0.11 0.76,0.07l3.48,-0.05c0.28,0.01 0.55,-0.04 0.8,-0.17c0.16,-0.08 0.28,-0.21 0.34,-0.37c0.03,-0.15 0.03,-0.31 0,-0.46c-0.02,-0.12 -0.05,-0.24 -0.1,-0.36z" />
</svg>