<svg version="1.2" baseProfile="tiny-ps" xmlns="http://www.w3.org/2000/svg" viewBox="0 0 20 20" width="20" height="20">
	<title>instagram-svg</title>
	<style>
		tspan { white-space:pre }
		.shp0 { fill: #ffffff } 
	</style>
	<path id="Instagram" fill-rule="evenodd" class="shp0" d="M14.12 0.06C15.19 0.11 15.91 0.28 16.55 0.53C17.21 0.78 17.77 1.12 18.32 1.68C18.88 2.23 19.22 2.79 19.48 3.45C19.72 4.09 19.89 4.81 19.94 5.88C19.99 6.94 20 7.28 20 10C20 12.72 19.99 13.06 19.94 14.12C19.89 15.19 19.72 15.91 19.48 16.55C19.22 17.21 18.88 17.77 18.32 18.32C17.77 18.88 17.21 19.22 16.55 19.48C15.91 19.72 15.19 19.89 14.12 19.94C13.06 19.99 12.72 20 10 20C7.28 20 6.94 19.99 5.88 19.94C4.81 19.89 4.09 19.72 3.45 19.48C2.79 19.22 2.23 18.88 1.68 18.32C1.12 17.77 0.78 17.21 0.53 16.55C0.28 15.91 0.11 15.19 0.06 14.12C0.01 13.06 0 12.72 0 10C0 7.28 0.01 6.94 0.06 5.88C0.11 4.81 0.28 4.09 0.53 3.45C0.78 2.79 1.12 2.23 1.68 1.68C2.23 1.12 2.79 0.78 3.45 0.53C4.09 0.28 4.81 0.11 5.88 0.06C6.94 0.01 7.28 0 10 0C12.72 0 13.06 0.01 14.12 0.06ZM5.96 1.86C4.98 1.9 4.45 2.07 4.1 2.2C3.64 2.39 3.3 2.6 2.95 2.95C2.6 3.3 2.39 3.64 2.2 4.1C2.07 4.45 1.9 4.98 1.86 5.96C1.81 7.01 1.8 7.33 1.8 10C1.8 12.67 1.81 12.99 1.86 14.04C1.9 15.02 2.07 15.55 2.2 15.9C2.39 16.36 2.6 16.7 2.95 17.05C3.3 17.4 3.64 17.61 4.1 17.8C4.45 17.93 4.98 18.1 5.96 18.14C7.01 18.19 7.33 18.2 10 18.2C12.67 18.2 12.99 18.19 14.04 18.14C15.02 18.1 15.55 17.93 15.9 17.8C16.36 17.61 16.7 17.4 17.05 17.05C17.4 16.7 17.61 16.36 17.8 15.9C17.93 15.55 18.1 15.02 18.14 14.04C18.19 12.99 18.2 12.67 18.2 10C18.2 7.33 18.19 7.01 18.14 5.96C18.1 4.98 17.93 4.45 17.8 4.1C17.61 3.64 17.4 3.3 17.05 2.95C16.7 2.6 16.36 2.39 15.9 2.2C15.55 2.07 15.02 1.9 14.04 1.86C12.99 1.81 12.67 1.8 10 1.8C7.33 1.8 7.01 1.81 5.96 1.86ZM4.86 10C4.86 7.16 7.16 4.86 10 4.86C12.84 4.86 15.14 7.16 15.14 10C15.14 12.84 12.84 15.14 10 15.14C7.16 15.14 4.86 12.84 4.86 10ZM13.33 10C13.33 8.16 11.84 6.67 10 6.67C8.16 6.67 6.67 8.16 6.67 10C6.67 11.84 8.16 13.33 10 13.33C11.84 13.33 13.33 11.84 13.33 10ZM14.14 4.66C14.14 4 14.68 3.46 15.34 3.46C16 3.46 16.54 4 16.54 4.66C16.54 5.32 16 5.86 15.34 5.86C14.68 5.86 14.14 5.32 14.14 4.66Z" />
</svg>