<svg version="1.2" baseProfile="tiny-ps" xmlns="http://www.w3.org/2000/svg" viewBox="0 0 20 20" width="20" height="20">
	<title>invite-friends-svg</title>
	<style>
		tspan { white-space:pre }
		.shp0 { fill: #ffffff } 
	</style>
	<path id="invite-friends-icon" fill-rule="evenodd" class="shp0" d="M16.63 3.52L19.52 3.52C19.78 3.52 20 3.75 20 4.03C20 4.3 19.78 4.53 19.52 4.53L16.63 4.53L16.63 7.55C16.63 7.82 16.41 8.05 16.14 8.05C15.88 8.05 15.66 7.82 15.66 7.55L15.66 4.53L12.77 4.53C12.51 4.53 12.29 4.3 12.29 4.03C12.29 3.75 12.51 3.52 12.77 3.52L15.66 3.52L15.66 0.5C15.66 0.23 15.88 0 16.14 0C16.41 0 16.63 0.23 16.63 0.5L16.63 3.52ZM2.69 6.51L2.69 5.66C2.69 5.34 2.85 5.05 3.1 4.88L3.1 4.6C3.1 2.55 4.42 1.33 6.63 1.33C8.84 1.33 10.16 2.55 10.16 4.6L10.16 4.88C10.4 5.04 10.56 5.33 10.56 5.66L10.56 6.51C10.56 6.88 10.35 7.21 10.04 7.35C9.85 7.86 9.4 9.01 9.06 9.54L9.02 9.6C8.75 10.04 8.23 10.86 6.63 10.86C5.02 10.86 4.51 10.04 4.23 9.6L4.23 9.6L4.19 9.54C3.86 9.01 3.41 7.86 3.22 7.35C2.91 7.21 2.69 6.88 2.69 6.51ZM3.65 5.73L3.65 6.43C3.82 6.46 3.97 6.58 4.03 6.75C4.19 7.21 4.69 8.5 5 8.98L5.04 9.05L5.04 9.05C5.26 9.41 5.54 9.85 6.63 9.85C7.71 9.85 7.99 9.41 8.22 9.05L8.26 8.98C8.57 8.5 9.06 7.21 9.22 6.75C9.29 6.58 9.43 6.46 9.6 6.43L9.6 5.73C9.37 5.69 9.19 5.48 9.19 5.23L9.19 4.6C9.19 3.12 8.31 2.34 6.63 2.34C4.95 2.34 4.06 3.12 4.06 4.6L4.06 5.23C4.06 5.48 3.88 5.69 3.65 5.73L3.65 5.73ZM1.43 11.84L11.82 11.84C12.28 11.84 12.69 12.03 12.96 12.36C13.21 12.68 13.31 13.1 13.23 13.54C13.12 14.15 12.57 14.72 12.24 15.06L12.24 15.06L12.16 15.14L8.13 19.35C7.76 19.74 7.27 19.96 6.74 19.99C6.72 20 6.7 20 6.68 20L6.59 20C6.56 20 6.54 20 6.52 20C5.99 19.97 5.5 19.74 5.13 19.35L1.02 15.06C0.69 14.72 0.14 14.15 0.03 13.54C-0.05 13.1 0.04 12.68 0.3 12.36C0.56 12.03 0.97 11.84 1.43 11.84ZM12.21 13C12.14 12.9 11.99 12.85 11.82 12.85L1.43 12.85C1.26 12.85 1.12 12.9 1.04 13C0.95 13.11 0.96 13.25 0.97 13.35C1.03 13.66 1.48 14.12 1.69 14.34L1.69 14.34L1.77 14.43L5.81 18.64C6.02 18.86 6.3 18.98 6.6 18.99C6.61 18.99 6.61 18.99 6.62 18.99L6.63 18.99L6.63 18.99C6.64 18.99 6.65 18.99 6.65 18.99L6.65 18.99L6.66 18.99C6.96 18.98 7.24 18.86 7.45 18.64L11.56 14.34C11.77 14.12 12.22 13.66 12.28 13.35C12.3 13.25 12.3 13.11 12.21 13Z" />
</svg>