<svg version="1.2" baseProfile="tiny-ps" xmlns="http://www.w3.org/2000/svg" viewBox="0 0 15 20" width="15" height="20">
	<title>notification-svg</title>
	<style>
		tspan { white-space:pre }
		.shp0 { fill: #2c3e51 } 
	</style>
	<path id="Layer" fill-rule="evenodd" class="shp0" d="M13.98 14.43C13.98 14.57 14.05 14.71 14.15 14.75C15.52 15.29 15.17 17.5 13.57 17.5L10.19 17.5C10.02 18.89 8.86 20 7.5 20C6.14 20 4.98 18.89 4.81 17.5L1.43 17.5C-0.19 17.5 -0.5 15.28 0.85 14.75C0.95 14.71 1.02 14.57 1.02 14.43L1.02 8.93C1.02 7.07 1.74 5.32 3 4.04C3.96 3.11 5.11 2.46 6.38 2.25C6.24 2 6.14 1.71 6.14 1.43C6.14 0.64 6.75 0 7.5 0C8.25 0 8.86 0.64 8.86 1.43C8.86 1.75 8.8 2 8.63 2.25C11.63 2.82 13.98 5.68 13.98 9.07L13.98 14.43ZM8.18 1.43C8.18 1.04 7.88 0.71 7.5 0.71C7.13 0.71 6.82 1.04 6.82 1.43C6.82 1.82 7.13 2.14 7.5 2.14C7.88 2.14 8.18 1.82 8.18 1.43ZM9.51 17.5L5.49 17.5C5.66 18.5 6.48 19.29 7.5 19.29C8.52 19.29 9.34 18.5 9.51 17.5ZM1.43 16.79L13.57 16.79C14.42 16.79 14.58 15.66 13.91 15.39C13.54 15.25 13.3 14.86 13.3 14.43L13.3 9.07C13.3 5.74 10.74 2.86 7.5 2.86C6 2.86 4.57 3.46 3.48 4.57C2.32 5.71 1.7 7.25 1.7 8.93L1.7 14.43C1.7 14.86 1.47 15.25 1.09 15.39C0.35 15.84 0.71 16.79 1.43 16.79Z" />
</svg>