<svg width="21" height="20" viewBox="0 0 21 20" fill="none" xmlns="http://www.w3.org/2000/svg">
<path d="M10.6412 19.5238C10.6235 19.5238 10.5717 19.5221 10.5471 19.5238C10.4862 19.5226 10.4529 19.5238 10.4529 19.5238C9.20101 19.5238 8.42049 18.9649 7.62779 18.3809C7.1443 18.0508 6.65231 17.6985 6.0269 17.619C5.79001 17.5532 5.50846 17.5294 5.27353 17.5238C4.74645 17.5294 4.36009 17.6061 4.04932 17.619C3.90633 17.696 3.75837 17.7252 3.67264 17.7143C3.5282 17.7252 3.4012 17.6994 3.39012 17.5238C3.29762 17.3416 3.2631 17.1813 3.20178 17.0476C3.14308 16.6258 3.08184 16.3796 2.91927 16.3809C0.98773 16.0519 0.435328 15.64 0.282501 15.3333C0.295173 15.3065 0.284897 15.2644 0.282501 15.2381C0.276677 15.1107 0.354769 15.0116 0.470842 14.9524C3.42956 14.499 4.75919 11.4281 4.80268 11.3333C4.81755 11.2907 4.81591 11.2944 4.80268 11.3333C5.00086 10.9146 5.03621 10.591 4.89685 10.2857C4.72179 9.84019 4.058 9.62655 3.57847 9.5238C3.51135 9.45081 3.40942 9.41833 3.29595 9.42857C2.45217 9.03479 2.37942 8.67456 2.44842 8.47618C2.47272 8.17774 2.88538 7.95952 3.20178 7.99999C3.31078 7.95952 3.39134 7.97618 3.48429 7.99999C3.85373 8.19523 4.20884 8.29018 4.52017 8.28571C4.93962 8.29018 5.12458 8.10986 5.17936 8.09523C5.13609 7.8829 5.12293 7.67051 5.08519 7.42857C5.021 6.03096 4.91126 4.26565 5.3677 3.23809C6.68437 0.238617 9.5031 0.00374222 10.3587 -5.72205e-06C10.3568 0.00374222 10.7004 -5.72205e-06 10.7354 -5.72205e-06C11.5837 -5.72205e-06 14.409 0.234869 15.7264 3.23809C16.1825 4.2644 16.0727 6.03096 16.009 7.42857V7.5238C15.9683 7.70965 15.9564 7.90164 15.9148 8.09523C15.9679 8.10778 16.1381 8.27352 16.4798 8.28571C16.8146 8.27727 17.15 8.18274 17.5157 7.99999C17.626 7.95702 17.746 7.9462 17.7982 7.90476C17.9523 7.9462 18.0785 7.97077 18.1749 7.99999C18.4874 8.12485 18.6827 8.33599 18.6457 8.57142C18.6909 8.76534 18.5339 9.0781 17.7982 9.42857C17.6851 9.41792 17.5832 9.4504 17.5157 9.5238C17.0353 9.62655 16.372 9.84019 16.1973 10.2857C16.0575 10.591 16.0929 10.9142 16.2915 11.3333C16.2778 11.294 16.2762 11.2907 16.2915 11.3333C16.3346 11.4281 17.6629 14.4981 20.6233 14.9524C20.739 15.0116 20.8175 15.1107 20.8116 15.2381C20.8088 15.2648 20.7986 15.3073 20.8116 15.3333C20.6584 15.6384 20.1068 16.0498 18.1749 16.3809C18.0197 16.3763 17.9585 16.5845 17.8924 17.0476C17.8302 17.1796 17.7957 17.3358 17.704 17.5238C17.7069 17.6423 17.6194 17.7089 17.5157 17.7143H17.4215C17.3456 17.7089 17.2006 17.6902 17.0448 17.619C16.6897 17.589 16.3235 17.5294 15.8206 17.5238C15.5853 17.5294 15.3037 17.5532 15.0673 17.619C14.4418 17.6985 13.9503 18.05 13.4664 18.3809C12.6737 18.9649 11.8931 19.5238 10.6412 19.5238Z" fill="white"/>
</svg>
