<svg width="20" height="15" viewBox="0 0 20 15" fill="none" xmlns="http://www.w3.org/2000/svg">
<path d="M13.4678 0.225589C13.1953 -0.0751965 12.7418 -0.0751965 12.4598 0.225589C12.1874 0.516214 12.1874 0.99991 12.4598 1.28986L17.5707 6.74126L0.70562 6.74126C0.312479 6.74194 -1.29918e-06 7.07524 -1.37618e-06 7.49458C-1.45318e-06 7.91392 0.312479 8.25806 0.705619 8.25806L17.5707 8.25806L12.4598 13.6993C12.1874 14.0001 12.1874 14.4845 12.4598 14.7744C12.7418 15.0752 13.1959 15.0752 13.4678 14.7744L19.7885 8.03247C20.0705 7.74185 20.0705 7.25815 19.7885 6.96821L13.4678 0.225589Z" fill="white"/>
</svg>
