<svg width="60" height="60" viewBox="0 0 60 60" fill="none" xmlns="http://www.w3.org/2000/svg">
<path d="M0 1.10111e-06H5.45455V5.45455H0V1.10111e-06Z" fill="#51B73C"/>
<path d="M54.5454 1.10111e-06H60V5.45455H54.5454V1.10111e-06Z" fill="#51B73C"/>
<path d="M0 54.5454H5.45455V60H0V54.5454Z" fill="#51B73C"/>
<path d="M54.5454 54.5454H60V60H54.5454V54.5454Z" fill="#51B73C"/>
<path d="M13.6364 1.10111e-06H27.8182V4.90909H13.6364V1.10111e-06Z" fill="#51B73C"/>
<path d="M0 13.6364H27.8182V18.5455H0V13.6364Z" fill="#51B73C"/>
<path d="M13.6364 22.9091H27.8182V27.8182H13.6364V22.9091Z" fill="#51B73C"/>
<path d="M18.5455 4.90909V22.9091H13.6364V4.90909H18.5455Z" fill="#51B73C"/>
<path d="M4.90909 18.5455L4.90909 27.8182H1.14862e-07L0 18.5455H4.90909Z" fill="#51B73C"/>
<path d="M27.8182 18.5455V22.9091H22.9091V18.5455H27.8182Z" fill="#51B73C"/>
<path d="M60 13.6364V27.8182L55.0909 27.8182V13.6364H60Z" fill="#51B73C"/>
<path d="M46.3636 5.05045e-07V27.8182H41.4545V2.90461e-07L46.3636 5.05045e-07Z" fill="#51B73C"/>
<path d="M37.0909 13.6364V27.8182H32.1818L32.1818 13.6364H37.0909Z" fill="#51B73C"/>
<path d="M55.0909 18.5455H37.0909V13.6364L55.0909 13.6364V18.5455Z" fill="#51B73C"/>
<path d="M41.4545 4.90909L32.1818 4.90909V0L41.4545 2.90461e-07V4.90909Z" fill="#51B73C"/>
<path d="M41.4545 27.8182H37.0909V22.9091H41.4545V27.8182Z" fill="#51B73C"/>
<path d="M46.3636 60H32.1818V55.0909H46.3636V60Z" fill="#51B73C"/>
<path d="M60 46.3636H32.1818V41.4545H60V46.3636Z" fill="#51B73C"/>
<path d="M46.3636 37.0909H32.1818V32.1818L46.3636 32.1818L46.3636 37.0909Z" fill="#51B73C"/>
<path d="M41.4545 55.0909V37.0909H46.3636V55.0909H41.4545Z" fill="#51B73C"/>
<path d="M55.0909 41.4545L55.0909 32.1818H60L60 41.4545H55.0909Z" fill="#51B73C"/>
<path d="M32.1818 41.4545V37.0909H37.0909V41.4545H32.1818Z" fill="#51B73C"/>
<path d="M1.78819e-06 46.3636L3.64791e-06 32.1818H4.90909L4.90909 46.3636H1.78819e-06Z" fill="#51B73C"/>
<path d="M13.6364 60L13.6364 32.1818L18.5455 32.1818L18.5455 60H13.6364Z" fill="#51B73C"/>
<path d="M22.9091 46.3636L22.9091 32.1818H27.8182L27.8182 46.3636H22.9091Z" fill="#51B73C"/>
<path d="M4.90909 41.4545L22.9091 41.4545V46.3636L4.90909 46.3636L4.90909 41.4545Z" fill="#51B73C"/>
<path d="M18.5455 55.0909H27.8182V60H18.5455V55.0909Z" fill="#51B73C"/>
<path d="M18.5455 32.1818H22.9091L22.9091 37.0909H18.5455L18.5455 32.1818Z" fill="#51B73C"/>
</svg>
