<svg xmlns="http://www.w3.org/2000/svg" viewBox="0 0 27 18" width="27" height="18">
	<style>
		tspan { white-space:pre }
		.shp0 { fill: #ffffff } 
	</style>
	<path id="Shape 15" class="shp0" d="M5.26 4.48C5.96 4.71 6.41 5.34 6.41 6.07C6.41 6.81 5.96 7.43 5.26 7.66L1.83 8.79C1.37 8.79 0.99 8.42 0.99 7.95L0.99 4.19C0.99 3.73 1.37 3.35 1.83 3.35L5.26 4.48ZM21.74 4.48C21.04 4.71 20.59 5.34 20.59 6.07C20.59 6.81 21.04 7.43 21.74 7.66L25.17 8.79C25.63 8.79 26.01 8.42 26.01 7.95L26.01 4.19C26.01 3.73 25.63 3.35 25.17 3.35L21.74 4.48ZM10.17 17.99C9.71 17.99 9.33 17.62 9.33 17.16C9.33 14.38 6.34 12.14 2.66 12.14C2.2 12.14 1.83 11.76 1.83 11.3L1.83 10.11L5.65 8.85C6.86 8.46 7.66 7.35 7.66 6.07C7.66 4.79 6.86 3.69 5.65 3.29L1.83 2.03L1.83 0.84C1.83 0.38 2.2 0.01 2.66 0.01L24.34 0.01C24.8 0.01 25.17 0.38 25.17 0.84L25.17 2.03L21.35 3.29C20.14 3.69 19.34 4.79 19.34 6.07C19.34 7.35 20.14 8.46 21.35 8.85L25.17 10.11L25.17 11.3C25.17 11.76 24.8 12.14 24.34 12.14C20.66 12.14 17.67 14.38 17.67 17.16C17.67 17.62 17.29 17.99 16.83 17.99L10.17 17.99Z" />
</svg>