<svg xmlns="http://www.w3.org/2000/svg" viewBox="0 0 11 11" width="11" height="11">
	<style>
		tspan { white-space:pre }
		.shp0 { fill: #0072bc } 
	</style>
	<path id="pencil" class="shp0" d="M9.78 3.93L3.57 10.13C3.57 10.13 0.76 10.35 0.4 10C0.05 9.64 0.26 6.83 0.26 6.83L6.47 0.63C7.04 0.06 7.95 0.06 8.51 0.63L9.78 1.89C10.34 2.45 10.34 3.37 9.78 3.93ZM7.09 3.23C6.71 2.85 6.08 2.85 5.7 3.23L1.97 6.96C1.97 6.96 2.51 7.13 2.86 7.48C3.21 7.82 3.35 8.35 3.35 8.35L7.09 4.62C7.47 4.23 7.47 3.61 7.09 3.23Z" />
</svg>