<svg width="17" height="17" viewBox="0 0 17 17" fill="none" xmlns="http://www.w3.org/2000/svg">
<path d="M7.18724 9.74667C8.173 10.7467 9.36574 11.5187 10.6817 12.0086L12.462 10.5919C12.5147 10.5556 12.5773 10.5361 12.6414 10.5361C12.7055 10.5361 12.7681 10.5556 12.8209 10.5919L16.1264 12.7217C16.2519 12.7971 16.3581 12.9007 16.4367 13.0243C16.5153 13.1478 16.5641 13.288 16.5792 13.4336C16.5943 13.5792 16.5753 13.7264 16.5238 13.8635C16.4723 14.0005 16.3896 14.1237 16.2822 14.2233L14.7334 15.7533C14.5115 15.9725 14.2389 16.1334 13.9398 16.2215C13.6407 16.3097 13.3244 16.3224 13.0192 16.2586C9.9744 15.6298 7.16794 14.157 4.92057 12.0086C2.72308 9.83887 1.20243 7.07807 0.543073 4.06111C0.477938 3.76061 0.491533 3.44837 0.58254 3.15467C0.673547 2.86096 0.838881 2.59575 1.06252 2.38472L2.66807 0.835832C2.76743 0.733732 2.88859 0.655432 3.0225 0.606794C3.1564 0.558156 3.29958 0.540442 3.4413 0.554978C3.58302 0.569513 3.71961 0.615921 3.84085 0.690728C3.9621 0.765534 4.06485 0.8668 4.14141 0.986943L6.34196 4.25C6.37992 4.30124 6.40041 4.36332 6.40041 4.42708C6.40041 4.49085 6.37992 4.55293 6.34196 4.60417L4.89224 6.34667C5.39543 7.63628 6.17939 8.7977 7.18724 9.74667Z" fill="white"/>
</svg>
