<svg width="60" height="60" fill="none" xmlns="http://www.w3.org/2000/svg"><path d="M0 0h5.455v5.455H0V0zm54.545 0H60v5.455h-5.455V0zM0 54.545h5.455V60H0v-5.455zm54.545 0H60V60h-5.455v-5.455zM13.636 0h14.182v4.91H13.636V0zM0 13.636h27.818v4.91H0v-4.91zm13.636 9.274h14.182v4.908H13.636V22.91z" fill="#51B73C"/><path d="M18.546 4.91v18h-4.91v-18h4.91zM4.91 18.546v9.272H0v-9.273h4.91zm22.908 0v4.363H22.91v-4.363h4.91zM60 13.636v14.182h-4.91V13.636H60zM46.364 0v27.818h-4.91V0h4.91zM37.09 13.636v14.182h-4.908V13.636h4.909z" fill="#51B73C"/><path d="M55.09 18.546h-18v-4.91h18v4.91zM41.455 4.91h-9.273V0h9.273v4.91zm0 22.908H37.09V22.91h4.364v4.91zM46.364 60H32.182v-4.91h14.182V60zM60 46.364H32.182v-4.91H60v4.91zM46.364 37.09H32.182v-4.908h14.182v4.909z" fill="#51B73C"/><path d="M41.455 55.09v-18h4.909v18h-4.91zM55.09 41.455v-9.273H60v9.273h-4.91zm-22.908 0V37.09h4.909v4.364h-4.91zM0 46.364V32.182h4.91v14.182H0zM13.636 60V32.182h4.91V60h-4.91zm9.274-13.636V32.182h4.908v14.182H22.91z" fill="#51B73C"/><path d="M4.91 41.455h18v4.909h-18v-4.91zM18.546 55.09h9.272V60h-9.273v-4.91zm0-22.908h4.363v4.909h-4.363v-4.91z" fill="#51B73C"/></svg>