<svg xmlns="http://www.w3.org/2000/svg" viewBox="0 0 23 23" width="23" height="23">
	<style>
		tspan { white-space:pre }
		.shp0 { fill: #ffffff } 
	</style>
	<path id="Shape 16" class="shp0" d="M14.65 11.5C14.65 13.24 13.24 14.65 11.5 14.65C9.76 14.65 8.35 13.24 8.35 11.5C8.35 9.76 9.76 8.35 11.5 8.35C13.24 8.35 14.65 9.76 14.65 11.5ZM21.96 10.49C21.94 10.35 21.84 10.23 21.7 10.19L19.5 9.56C19.38 9.53 19.29 9.44 19.25 9.32C19.08 8.7 18.83 8.11 18.52 7.56C18.46 7.45 18.46 7.32 18.52 7.22L19.64 5.21C19.71 5.08 19.7 4.93 19.61 4.82C19.18 4.3 18.7 3.82 18.18 3.39C18.07 3.3 17.92 3.29 17.79 3.36L15.78 4.48C15.67 4.54 15.55 4.54 15.44 4.48C14.89 4.17 14.3 3.92 13.68 3.74C13.56 3.71 13.47 3.62 13.44 3.5L12.81 1.3C12.77 1.15 12.65 1.06 12.51 1.04C12.18 1.01 11.84 1 11.5 1C11.16 1 10.82 1.01 10.49 1.04C10.35 1.06 10.23 1.15 10.19 1.3L9.56 3.5C9.53 3.62 9.44 3.71 9.32 3.74C8.7 3.92 8.11 4.17 7.56 4.48C7.45 4.54 7.33 4.54 7.22 4.48L5.21 3.36C5.08 3.29 4.93 3.3 4.82 3.39C4.3 3.82 3.82 4.3 3.39 4.82C3.3 4.93 3.29 5.08 3.36 5.21L4.48 7.22C4.54 7.32 4.54 7.45 4.48 7.56C4.17 8.11 3.92 8.7 3.75 9.32C3.71 9.44 3.62 9.53 3.5 9.56L1.3 10.19C1.16 10.23 1.06 10.35 1.04 10.49C1.01 10.82 1 11.16 1 11.5C1 11.84 1.01 12.18 1.04 12.51C1.06 12.65 1.16 12.77 1.3 12.81L3.5 13.44C3.62 13.47 3.71 13.56 3.74 13.68C3.92 14.3 4.17 14.89 4.48 15.44C4.54 15.55 4.54 15.68 4.48 15.78L3.36 17.79C3.29 17.92 3.3 18.07 3.39 18.18C3.82 18.7 4.3 19.18 4.82 19.61C4.93 19.7 5.08 19.71 5.21 19.64L7.22 18.52C7.33 18.46 7.45 18.46 7.56 18.52C8.11 18.83 8.7 19.08 9.32 19.26C9.44 19.29 9.53 19.38 9.56 19.5L10.19 21.7C10.23 21.84 10.35 21.94 10.49 21.96C10.82 21.99 11.16 22 11.5 22C11.84 22 12.18 21.99 12.51 21.96C12.65 21.94 12.77 21.84 12.81 21.7L13.44 19.5C13.47 19.38 13.56 19.29 13.68 19.26C14.3 19.08 14.89 18.83 15.44 18.52C15.55 18.46 15.67 18.46 15.79 18.52L17.79 19.64C17.92 19.71 18.07 19.7 18.18 19.61C18.7 19.18 19.18 18.7 19.61 18.18C19.7 18.07 19.71 17.92 19.64 17.79L18.52 15.78C18.46 15.68 18.46 15.55 18.52 15.44C18.83 14.89 19.08 14.3 19.26 13.68C19.29 13.56 19.38 13.47 19.5 13.44L21.7 12.81C21.84 12.77 21.94 12.65 21.96 12.51C21.99 12.18 22 11.84 22 11.5C22 11.16 21.99 10.82 21.96 10.49Z" />
</svg>