<svg xmlns="http://www.w3.org/2000/svg" viewBox="0 0 30 19" width="30" height="19">
	<style>
		tspan { white-space:pre }
		.shp0 { fill: #ffffff } 
	</style>
	<path id="Shape 14" class="shp0" d="M24.34 15.99C24.34 17.65 22.98 19 21.3 19C19.63 19 18.27 17.65 18.27 15.99C18.27 14.32 19.63 12.97 21.3 12.97C22.98 12.97 24.34 14.32 24.34 15.99ZM21.3 14.83C20.66 14.83 20.14 15.35 20.14 15.99C20.14 16.63 20.66 17.14 21.3 17.14C21.95 17.14 22.47 16.63 22.47 15.99C22.47 15.35 21.95 14.83 21.3 14.83ZM12.2 15.99C12.2 17.65 10.84 19 9.16 19C7.49 19 6.13 17.65 6.13 15.99C6.13 14.32 7.49 12.97 9.16 12.97C10.84 12.97 12.2 14.32 12.2 15.99ZM9.16 14.83C8.52 14.83 8 15.35 8 15.99C8 16.63 8.52 17.14 9.16 17.14C9.81 17.14 10.33 16.63 10.33 15.99C10.33 15.35 9.81 14.83 9.16 14.83ZM13.6 14.36C13.6 14.87 14.02 15.29 14.53 15.29L16.92 15.29C17.26 13.19 19.09 11.59 21.3 11.59C23.51 11.59 25.35 13.19 25.68 15.29L28.07 15.29C28.59 15.29 29.01 14.87 29.01 14.36L29.01 0.93C29.01 0.42 28.59 0 28.07 0L14.53 0C14.02 0 13.6 0.42 13.6 0.93L13.6 14.36ZM11.26 1.86C11.77 1.86 12.2 2.27 12.2 2.78L12.2 12.78C11.41 12.04 10.34 11.59 9.16 11.59C6.95 11.59 5.12 13.19 4.78 15.29L3.8 15.29C2.25 15.29 0.99 14.04 0.99 12.51L0.99 8.34C0.99 4.77 3.93 1.86 7.53 1.86L11.26 1.86ZM7.53 3.71C5.14 3.71 3.15 5.52 2.89 7.83C2.86 8.1 3.08 8.34 3.35 8.34C3.66 8.34 3.93 8.28 4.2 8.13C5.53 7.38 7.06 6.95 8.7 6.95L9.86 6.95C10.12 6.95 10.33 6.74 10.33 6.49L10.33 4.17C10.33 3.92 10.12 3.71 9.86 3.71L7.53 3.71Z" />
</svg>