<svg xmlns="http://www.w3.org/2000/svg" viewBox="0 0 33 35" width="33" height="35">
	<style>
		tspan { white-space:pre }
		.shp0 { fill: #00a651 } 
	</style>
	<path id="Shape 11" class="shp0" d="M0.92,0c0,0 -2.92,10.6 1.65,19.17c2.07,3.88 9.68,12.96 21.75,7.34c2.25,2.43 4.24,5.19 5.29,7.91c0.2,0.51 0.81,0.76 1.29,0.47l1.5,-0.89c0.54,-0.32 0.76,-0.99 0.47,-1.54c-1.06,-2.03 -2.72,-4.24 -4.74,-6.41c-0.33,-0.36 -0.67,-0.71 -1.03,-1.06c-2.44,-2.44 -5.32,-4.77 -8.32,-6.64c-0.65,-0.41 -1.26,-0.81 -1.83,-1.2c-0.85,-0.67 -1.68,-1.36 -2.47,-2.08c-0.53,-0.52 -1.05,-1.05 -1.57,-1.57c-0.38,-0.45 -0.72,-0.94 -1.03,-1.43c1.16,0.84 2.93,1.96 5.46,3.17c2.41,1.16 7.62,3.9 10.66,7.08c0.47,-3.02 0.63,-8.23 -2.73,-12.03c-6.18,-6.98 -19.14,-2.09 -24.36,-10.29z" />
</svg>