<svg xmlns="http://www.w3.org/2000/svg" xml:space="preserve" style="enable-background:new 0 0 512 512" viewBox="0 0 512 512">
  <path d="M454.2 148.6H57.8v297.3c0 18.2 14.8 33 33 33h330.3c18.2 0 33-14.8 33-33V148.6zm-429.4-33v330.3c0 36.5 29.6 66.1 66.1 66.1h330.3c36.5 0 66.1-29.6 66.1-66.1V115.6H24.8z" style="fill-rule:evenodd;clip-rule:evenodd" fill="#ffffff"/>
  <path d="M256 33c-45.6 0-82.6 37-82.6 82.6h-33C140.4 51.8 192.2 0 256 0s115.6 51.8 115.6 115.6h-33c0-45.6-37-82.6-82.6-82.6z" fill="#ffffff"/>
</svg>