<?xml version="1.0" standalone="no"?>
<!DOCTYPE svg PUBLIC "-//W3C//DTD SVG 20010904//EN"
 "http://www.w3.org/TR/2001/REC-SVG-20010904/DTD/svg10.dtd">
<svg version="1.0" xmlns="http://www.w3.org/2000/svg"
 width="1056.000000pt" height="1056.000000pt" viewBox="0 0 1056.000000 1056.000000"
 preserveAspectRatio="xMidYMid meet">
<metadata>
Created by potrace 1.14, written by Peter Selinger 2001-2017
</metadata>
<g transform="translate(0.000000,1056.000000) scale(0.100000,-0.100000)"
fill="#000000" stroke="none">
<path d="M7767 10474 c-1 -1 -50 -4 -108 -8 -59 -3 -113 -8 -120 -10 -8 -3
-33 -7 -56 -10 -22 -3 -52 -8 -65 -10 -12 -3 -36 -8 -53 -11 -16 -3 -41 -8
-55 -11 -14 -3 -32 -7 -40 -9 -8 -2 -15 -4 -15 -5 0 -1 -7 -3 -16 -5 -37 -7
-136 -38 -169 -52 -19 -9 -43 -18 -54 -20 -68 -13 -434 -203 -458 -238 -4 -5
-8 -6 -8 -2 0 4 -26 -11 -57 -35 -203 -150 -399 -339 -515 -495 -23 -32 -48
-64 -55 -71 -7 -7 -13 -17 -13 -22 0 -5 -6 -15 -13 -22 -17 -17 -96 -147 -133
-218 -15 -30 -30 -57 -33 -60 -4 -3 -7 -9 -8 -15 -1 -5 -21 -52 -43 -104 -36
-83 -85 -217 -95 -261 -2 -8 -4 -15 -5 -15 -2 0 -5 -12 -13 -50 -3 -11 -10
-38 -16 -60 -10 -39 -18 -83 -26 -135 -2 -14 -8 -56 -14 -94 -5 -38 -10 -72
-9 -75 0 -3 -1 -8 -2 -11 -6 -10 -7 -425 -2 -434 3 -6 7 -30 8 -55 1 -25 5
-59 9 -76 3 -16 8 -46 10 -65 14 -112 98 -392 156 -518 16 -35 29 -69 29 -77
0 -7 3 -15 8 -17 4 -1 23 -36 42 -75 19 -40 38 -73 43 -73 4 0 7 -5 7 -11 0
-6 14 -31 30 -56 17 -24 30 -46 30 -49 0 -5 40 -64 50 -74 3 -3 25 -32 50 -65
24 -33 49 -65 55 -72 5 -6 35 -40 65 -74 196 -223 457 -420 729 -550 108 -52
116 -55 186 -82 22 -8 58 -22 80 -31 64 -25 260 -75 358 -91 101 -17 190 -27
268 -30 36 -1 71 -5 77 -9 7 -4 12 -3 12 3 0 7 8 7 25 1 16 -6 25 -6 25 0 0 6
9 6 24 0 13 -5 27 -6 30 -3 3 3 36 7 73 8 62 2 132 9 223 22 19 2 43 5 52 4
10 0 20 5 23 10 4 5 10 7 14 5 7 -5 136 23 199 42 17 6 32 8 32 5 0 -3 6 -1
13 4 6 6 39 18 72 28 33 10 65 21 70 25 6 4 33 15 60 25 68 24 271 125 336
167 30 19 57 34 60 34 3 -1 12 6 21 14 9 8 26 22 38 30 160 107 395 328 515
485 95 125 189 274 246 390 18 39 37 72 41 73 5 2 8 10 8 18 0 8 9 33 20 57
20 43 56 134 60 152 4 15 11 37 21 65 5 14 10 34 12 45 1 11 5 25 8 30 4 6 12
35 18 65 7 30 15 62 18 70 3 8 7 33 9 55 2 22 6 51 9 65 4 14 9 48 11 75 8 74
9 79 17 92 4 6 3 14 -2 17 -4 3 -5 23 -2 43 4 21 6 591 6 1268 l0 1230 -1218
0 c-670 0 -1219 -1 -1220 -1z"/>
<path d="M373 6297 c2 -2196 6 -4012 10 -4037 4 -25 10 -61 13 -80 3 -19 7
-44 9 -55 2 -11 6 -33 10 -50 3 -16 8 -41 10 -55 7 -44 55 -222 65 -241 6 -10
10 -27 10 -38 0 -12 4 -21 10 -21 5 0 7 -7 4 -15 -4 -8 -1 -15 5 -15 6 0 10
-3 9 -7 -5 -21 33 -112 116 -273 32 -63 64 -125 70 -137 6 -13 14 -23 19 -23
4 0 7 -5 7 -12 0 -6 11 -26 25 -44 14 -18 25 -37 25 -43 0 -6 4 -11 8 -11 4 0
16 -15 27 -32 10 -18 21 -35 25 -38 3 -3 19 -23 36 -44 61 -83 211 -240 316
-331 55 -49 156 -125 165 -125 5 0 15 -9 23 -20 8 -11 20 -20 26 -20 7 0 19
-6 26 -13 7 -7 20 -16 28 -20 8 -4 31 -17 50 -29 58 -35 214 -112 235 -115 10
-2 22 -7 25 -11 15 -20 331 -115 425 -128 173 -23 225 -27 350 -27 181 0 288
12 454 49 110 25 231 63 316 100 22 10 42 18 45 19 11 1 75 29 80 35 3 3 29
16 58 29 28 14 52 28 52 33 0 4 3 7 8 6 7 -3 133 70 142 82 3 4 16 13 30 20
14 7 32 19 40 27 8 7 33 27 55 44 177 136 327 294 473 501 49 70 98 147 100
161 1 4 10 19 22 34 11 14 20 32 20 39 0 8 5 14 10 14 6 0 10 4 10 9 0 5 17
47 39 93 80 171 136 335 174 508 33 150 38 178 52 325 2 28 7 60 9 72 3 13 0
23 -6 23 -7 0 -7 4 0 13 11 13 10 3351 -1 3487 -4 41 -9 98 -12 125 -4 28 -8
70 -10 95 -2 25 -7 59 -9 75 -3 17 -8 53 -11 80 -6 45 -34 212 -50 290 -11 51
-16 79 -19 95 -1 9 -5 20 -8 25 -3 6 -9 28 -13 50 -5 22 -9 42 -10 45 -7 27
-26 121 -25 126 1 4 -2 10 -7 13 -5 3 -15 31 -22 61 -8 30 -18 61 -24 68 -5 6
-7 12 -3 12 3 0 -3 23 -14 50 -11 28 -17 50 -14 50 4 0 1 7 -6 15 -7 8 -9 15
-5 15 4 0 3 6 -3 13 -6 7 -13 24 -16 37 -7 37 -110 290 -163 400 -25 52 -46
100 -47 105 -1 6 -6 17 -11 25 -5 8 -26 47 -46 85 -50 97 -78 147 -132 240
-67 112 -71 119 -78 125 -3 3 -16 24 -29 48 -13 23 -27 42 -32 42 -4 0 -8 6
-8 14 0 7 -11 25 -25 40 -14 15 -25 31 -25 36 0 5 -6 15 -12 22 -7 7 -47 58
-88 113 -81 110 -81 109 -113 146 -12 14 -42 49 -67 79 -151 179 -352 378
-535 530 -90 75 -106 87 -200 158 -27 20 -51 40 -53 45 -2 4 -10 7 -18 7 -8 0
-14 4 -14 8 0 5 -12 15 -27 23 -16 8 -30 17 -33 20 -9 10 -98 69 -105 69 -3 0
-11 5 -18 10 -25 21 -102 70 -111 70 -5 0 -17 6 -25 14 -9 7 -41 26 -71 42
-30 15 -67 36 -81 46 -14 9 -29 15 -33 11 -3 -3 -6 -1 -6 5 0 7 -4 12 -9 12
-5 0 -63 25 -128 56 -167 78 -292 132 -322 138 -9 2 -27 7 -41 13 -37 15 -153
55 -170 58 -8 2 -15 4 -15 5 0 1 -7 3 -15 5 -8 2 -31 9 -50 14 -62 17 -114 32
-135 36 -11 3 -29 7 -40 10 -11 2 -58 12 -105 22 -47 9 -87 19 -90 22 -3 3
-16 6 -30 7 -14 0 -54 6 -90 12 -36 6 -87 14 -115 17 -27 3 -68 8 -90 11 -22
2 -71 7 -110 10 -38 3 -81 7 -95 8 -14 2 -33 -1 -44 -6 -12 -7 -16 -7 -12 0 3
6 -29 10 -84 10 l-90 1 3 -3992z"/>
<path d="M5560 4824 c0 -6 -15 -9 -35 -8 l-36 3 4 -1297 c2 -713 6 -1310 10
-1327 4 -16 9 -46 11 -65 9 -74 18 -126 28 -165 5 -22 12 -48 13 -57 7 -34 37
-143 45 -163 5 -11 18 -47 30 -80 11 -33 24 -69 29 -80 5 -11 18 -40 29 -65
11 -25 23 -55 26 -67 4 -13 12 -23 17 -23 5 0 9 -8 10 -17 0 -10 13 -40 29
-68 16 -27 40 -67 52 -89 13 -21 28 -48 35 -60 13 -22 28 -43 79 -111 17 -22
35 -48 40 -57 11 -19 64 -82 124 -148 25 -27 50 -55 57 -62 25 -28 121 -116
178 -163 33 -28 62 -53 63 -57 2 -5 8 -8 14 -8 5 0 16 -7 25 -16 58 -58 339
-220 493 -285 76 -31 336 -119 348 -118 4 1 9 0 12 -1 11 -4 46 -11 70 -15 14
-1 25 -4 25 -5 0 -2 33 -9 80 -15 22 -3 56 -8 75 -10 109 -16 152 -18 320 -16
231 2 270 4 270 14 0 5 4 6 9 3 5 -3 33 -1 62 4 30 5 68 12 84 15 17 2 41 7
55 10 14 3 36 8 50 11 64 12 258 74 317 100 17 8 34 14 37 14 8 0 255 122 301
148 16 9 35 22 42 29 7 6 22 15 33 18 11 3 20 11 20 16 0 5 7 9 15 9 8 0 15 5
15 10 0 6 5 10 10 10 6 0 16 4 23 10 97 78 195 153 205 157 6 3 12 11 12 19 0
8 4 14 9 14 11 0 148 136 206 205 22 26 46 53 53 60 6 8 12 17 12 21 0 3 8 14
18 23 43 40 191 279 255 412 32 65 59 130 58 136 0 2 11 27 24 58 14 30 23 55
20 55 -2 0 4 20 15 45 11 25 17 45 13 45 -3 0 0 7 7 15 7 8 10 15 7 15 -4 0 0
18 8 40 8 22 15 44 15 48 4 39 14 83 21 88 5 3 7 9 4 14 -2 4 0 32 5 61 5 30
12 68 15 84 19 107 24 380 10 530 -5 50 -9 104 -9 120 -1 17 -4 32 -7 35 -4 3
-9 25 -12 50 -4 25 -15 80 -25 122 -11 43 -17 80 -14 83 3 3 1 5 -5 5 -5 0
-10 6 -10 13 0 6 -10 44 -22 82 -13 39 -24 75 -25 80 -1 6 -12 31 -23 57 -12
25 -24 56 -28 67 -23 72 -214 411 -236 419 -5 2 -9 10 -9 18 0 8 -4 14 -10 14
-5 0 -10 5 -10 11 0 6 -6 16 -12 23 -7 7 -26 30 -43 51 -16 21 -38 47 -47 57
-10 10 -16 18 -13 18 3 0 -48 53 -113 119 -64 65 -120 116 -124 114 -5 -2 -8
0 -8 5 0 11 -104 94 -205 162 -44 30 -82 57 -85 60 -3 3 -16 11 -29 18 -13 8
-40 23 -60 34 -167 95 -475 219 -581 234 -14 2 -52 11 -85 19 -60 16 -99 23
-165 29 -19 2 -35 5 -35 6 0 6 -123 13 -262 14 -90 0 -163 5 -163 9 0 5 -5 5
-12 1 -18 -12 -58 -11 -58 1 0 6 -3 7 -8 0 -4 -5 -38 -10 -77 -10 -38 0 -73 5
-77 10 -5 7 -8 7 -8 0 0 -6 -32 -10 -75 -10 -43 0 -75 4 -75 10 0 7 -3 7 -8 0
-4 -5 -38 -10 -77 -10 -38 0 -73 5 -77 10 -5 7 -8 7 -8 0 0 -6 -33 -10 -80
-10 -44 0 -80 4 -80 8 0 5 -5 5 -11 1 -16 -10 -229 -10 -229 0 0 5 -7 2 -17
-5 -9 -8 -19 -12 -22 -11 -30 18 -43 22 -52 16 -17 -10 -149 -10 -149 0 0 5
-7 2 -17 -5 -9 -8 -19 -12 -22 -11 -30 18 -43 22 -52 16 -16 -10 -149 -11
-149 -1 0 5 -6 5 -12 0 -18 -11 -30 -11 -51 -1 -9 5 -22 6 -28 2 -17 -10 -149
-10 -149 0 0 5 -6 4 -12 -2 -20 -16 -22 -16 -46 -3 -12 6 -27 9 -33 5 -16 -10
-149 -11 -149 -1 0 5 -5 5 -12 1 -18 -12 -58 -11 -58 1 0 6 -3 7 -8 0 -4 -5
-38 -10 -77 -10 -38 0 -73 5 -77 10 -5 7 -8 6 -8 -1z"/>
</g>
</svg>
