<svg version="1.2" xmlns="http://www.w3.org/2000/svg" viewBox="0 0 609 429" width="609" height="429">
	<g id="Layer">
		<path id="Layer" class="s0" d="m474.5 105.7c-20.8 0-37.7-16.9-37.7-37.8 0-20.8 16.9-37.7 37.7-37.7h7.1v75.5z"/>
		<path id="Layer" class="s0" d="m390.3 77.8l-21-42c-2.7-6-9.6-10.1-15.9-10.1h-76.5c-7.2 0-12.9-5.7-12.9-12.9 0-7.2 5.7-12.9 12.9-12.9h76.5c16.6 0 30.8 9.1 38.1 22.6l33 66c0 0-34.2-10.7-34.2-10.7z"/>
	</g>
	<path id="Layer" class="s1" d="m576.6 159c10.1 2.9 17.4 12.2 17.4 23h-55.8c-73.4 0-133 59.7-133 133.1h-181.5c0-59-38.4-109-91.6-126.4l-100-33 16.6-25.3c5.9-8.9 16.1-14.7 27.6-14.7 2.5 0 4.8 0.2 7.1 0.7l222.9 69c2.7 0.9 5.6 1.4 8.7 1.4 10 0 18.7-5.1 24-12.9l50.7-73.3c0 0 187 58.4 186.9 58.4z"/>
	<path id="Layer" fill-rule="evenodd" class="s1" d="m427.4 338.3c0-50.3 40.6-90.7 90.6-90.7 50 0 90.6 40.4 90.6 90.7 0 50-40.6 90.6-90.6 90.6-50 0-90.6-40.6-90.6-90.6zm90.6 33.9c18.8 0 33.9-15.3 33.9-33.9 0-18.9-15.1-34-33.9-34-18.7 0-33.7 15.1-33.7 34 0 18.6 15 33.9 33.7 33.9z"/>
	<path id="Layer" fill-rule="evenodd" class="s1" d="m0.4 328.5c0-54.9 44.6-99.6 99.7-99.6 55.2 0 99.7 44.7 99.7 99.6 0 55.1-44.5 99.8-99.7 99.8-55.1 0-99.7-44.7-99.7-99.8zm99.9 37.3c20.6 0 37.3-16.6 37.3-37.2 0-20.7-16.7-37.3-37.3-37.3-20.7 0-37.3 16.6-37.3 37.3 0 20.6 16.6 37.2 37.3 37.2z"/>
</svg>