<svg width="27" height="23" viewBox="0 0 27 23" fill="none" xmlns="http://www.w3.org/2000/svg">
<path fill-rule="evenodd" clip-rule="evenodd" d="M0 12.105C0 11.5528 0.447715 11.105 1 11.105L23.0588 11.105C23.6111 11.105 24.0588 11.5528 24.0588 12.105C24.0588 12.6573 23.6111 13.105 23.0588 13.105L1 13.105C0.447715 13.105 0 12.6573 0 12.105Z" fill="white"/>
<path fill-rule="evenodd" clip-rule="evenodd" d="M14.6256 22.1544C14.2381 21.7609 14.2431 21.1277 14.6366 20.7402L23.7916 11.7261L14.6366 2.71192C14.2431 2.32444 14.2381 1.69129 14.6256 1.29775C15.0131 0.90421 15.6463 0.899302 16.0398 1.28679L25.9185 11.0135C26.1094 11.2015 26.2169 11.4582 26.2169 11.7261C26.2169 11.994 26.1094 12.2507 25.9185 12.4386L16.0398 22.1654C15.6463 22.5528 15.0131 22.5479 14.6256 22.1544Z" fill="white"/>
</svg>
